<?xml version="1.0" encoding="UTF-8" standalone="no"?>
<!-- Created with Inkscape (http://www.inkscape.org/) -->

<svg
   width="297mm"
   height="210mm"
   viewBox="0 0 297 210"
   version="1.1"
   id="svg5"
   inkscape:version="1.1.2 (b8e25be833, 2022-02-05)"
   sodipodi:docname="logo.svg"
   xmlns:inkscape="http://www.inkscape.org/namespaces/inkscape"
   xmlns:sodipodi="http://sodipodi.sourceforge.net/DTD/sodipodi-0.dtd"
   xmlns="http://www.w3.org/2000/svg"
   xmlns:svg="http://www.w3.org/2000/svg">
  <sodipodi:namedview
     id="namedview7"
     pagecolor="#505050"
     bordercolor="#ffffff"
     borderopacity="1"
     inkscape:pageshadow="0"
     inkscape:pageopacity="0"
     inkscape:pagecheckerboard="1"
     inkscape:document-units="mm"
     showgrid="false"
     showguides="false"
     inkscape:zoom="0.71720831"
     inkscape:cx="520.7692"
     inkscape:cy="196.5956"
     inkscape:window-width="2560"
     inkscape:window-height="1387"
     inkscape:window-x="-8"
     inkscape:window-y="-8"
     inkscape:window-maximized="1"
     inkscape:current-layer="layer1" />
  <defs
     id="defs2" />
  <g
     inkscape:label="Layer 1"
     inkscape:groupmode="layer"
     id="layer1">
    <path
       style="fill:#000000;stroke-width:0.146404"
       d="m 136.81978,132.91673 c -3.12736,-0.36788 -5.46118,-1.01753 -7.61299,-2.11914 -3.95675,-2.02564 -6.65697,-5.48686 -7.86609,-10.08303 -0.30275,-1.1508 -0.38076,-1.8531 -0.44087,-3.96871 -0.0446,-1.56821 -0.006,-3.08098 0.0986,-3.8797 0.89153,-6.79933 4.06269,-14.333657 8.56171,-20.341659 1.47842,-1.974304 5.30406,-5.898564 7.25961,-7.446764 5.80038,-4.592171 12.02146,-7.231913 18.87466,-8.00897 2.27836,-0.258339 7.60101,-0.09891 9.3486,0.28004 7.61593,1.651397 12.09046,6.609549 12.927,14.324196 0.77561,7.152665 -2.85104,18.074917 -8.49492,25.583897 -6.22289,8.27936 -15.21313,13.90027 -24.60315,15.38252 -1.46512,0.23127 -6.86319,0.41718 -8.05219,0.27732 z m 8.33389,-10.01939 c 3.19591,-0.32796 6.35854,-1.53373 8.73413,-3.32995 2.44858,-1.85137 4.88375,-4.82415 6.63175,-8.09582 0.41229,-0.77166 0.74961,-1.45376 0.74961,-1.51578 0,-0.13453 -26.821,0.0545 -26.96354,0.1899 -0.0542,0.0515 -0.17386,0.86797 -0.26597,1.8144 -0.19862,2.04079 -0.02,3.98598 0.50974,5.5518 0.80075,2.36682 2.5934,4.13437 5.01152,4.94134 1.62988,0.54391 3.31564,0.67779 5.59276,0.44411 z m 19.28308,-22.75989 c 0.25871,-0.0795 0.54139,-2.443711 0.53392,-4.46529 -0.0104,-2.661028 -0.46634,-4.315779 -1.60061,-5.801764 -0.97581,-1.278362 -1.91022,-1.920992 -3.63813,-2.502047 -1.10935,-0.373053 -1.31819,-0.393734 -3.9529,-0.39171 -2.57548,0.0017 -2.89019,0.03199 -4.24569,0.403658 -5.47902,1.502585 -10.14786,5.588505 -13.54616,11.854864 l -0.62222,1.147359 13.45274,-0.097 c 7.399,-0.0533 13.52758,-0.12 13.61905,-0.14819 z M 9.6461206,132.63904 c 0.0299,-0.0806 4.0807294,-12.27446 9.0018794,-27.09766 l 8.94755,-26.95126 3.84668,-0.09649 c 6.06111,-0.151994 8.312,-0.12865 8.312,0.08646 0,0.100984 -3.29408,10.065306 -7.32018,22.14299 -4.02609,12.07769 -7.32017,21.97614 -7.32017,21.99658 0,0.0204 4.50728,0.0372 10.01618,0.0372 h 10.01618 l -1.62794,4.88867 -1.62795,4.88866 -3.95953,0.0923 c -7.00079,0.16323 -28.3441094,0.17274 -28.2846994,0.0121 z m 57.2391294,-3.73839 1.19806,-3.5188 19.98408,-18.60723 c 10.99126,-10.233964 20.00059,-18.648045 20.02075,-18.697932 0.0202,-0.04997 -5.72802,-0.07038 -12.77373,-0.0453 -7.04569,0.0249 -12.80543,-0.0086 -12.79942,-0.07314 0.006,-0.06519 0.74719,-2.292628 1.64704,-4.949852 l 1.63611,-4.831316 20.69917,-0.114471 c 11.38453,-0.06294 20.72213,-0.09147 20.75023,-0.06346 0.0281,0.02801 -0.45839,1.573602 -1.08108,3.434471 l -1.13217,3.383409 -19.76446,18.768621 c -10.87048,10.32274 -19.79744,18.80251 -19.8377,18.84393 -0.0403,0.0413 6.06497,0.0334 13.56718,-0.018 l 13.64038,-0.0934 -1.64765,4.94086 -1.64764,4.94086 -10.2359,0.0887 c -5.62974,0.0488 -15.45261,0.098 -21.8286,0.1098 l -11.59272,0.0211 z m 109.07836,2.71059 c 0.047,-0.12243 4.11008,-12.33488 9.0291,-27.13879 l 8.9437,-26.916186 23.34906,-0.109284 c 12.84196,-0.06018 23.37743,-0.08093 23.41215,-0.04634 0.0348,0.03476 -4.00385,12.246954 -8.97454,27.13834 l -9.03762,27.07525 -6.03915,0.0382 c -3.32154,0.0211 -6.03914,-0.0121 -6.03914,-0.0738 0,-0.0616 3.25572,-9.87867 7.23495,-21.81574 l 7.23496,-21.703782 -5.66113,1.56e-4 c -3.11361,1.04e-4 -8.17916,0.04375 -11.25674,0.09683 l -5.59565,0.09666 -7.26347,21.790476 -7.26347,21.79043 h -6.07922 c -5.3799,0 -6.06939,-0.0256 -5.99379,-0.22259 z m 55.51823,-3.30356 1.10348,-3.28161 12.21937,-10.51925 12.21936,-10.51925 -4.97048,-9.865166 -4.9705,-9.86517 1.16564,-3.493678 1.16563,-3.493678 18.74741,-0.107036 c 10.31104,-0.05879 18.77333,-0.0811 18.80508,-0.04928 0.0519,0.05187 -3.13308,9.771121 -3.24489,9.90221 -0.0256,0.03009 -4.6248,0.09597 -10.22044,0.146461 l -10.17383,0.09182 3.94527,8.038141 c 2.16991,4.420966 3.94528,8.054796 3.94528,8.075166 0,0.0204 -4.59016,4.11134 -10.20037,9.09107 l -10.20035,9.05405 11.85526,0.0731 11.85528,0.0731 -1.6087,4.86792 -1.60873,4.86792 h -5.73169 c -3.15243,0 -12.36217,0.0438 -20.46611,0.0974 l -14.73444,0.0974 z"
       id="path21" />
    <rect
       style="fill:#ffffff;fill-opacity:0;stroke-width:0.264583"
       id="rect1350"
       width="78.208328"
       height="54.59827"
       x="-9.222681"
       y="0.73781449" />
    <path
       style="fill:#ffffff;fill-opacity:0;stroke-width:1.3943"
       d="m 669.10386,490.44328 c 1.36434,-4.02602 16.47652,-49.72792 33.58262,-101.55975 l 31.10199,-94.23972 87.13633,-0.96578 c 47.92497,-0.53118 87.431,-0.67111 87.79117,-0.31094 0.36016,0.36016 -14.49866,46.1154 -33.01959,101.6783 l -33.67445,101.02344 -16.52779,0.99306 c -9.09027,0.54617 -19.03378,0.56967 -22.09667,0.0521 l -5.56889,-0.94086 27.18919,-81.5544 c 14.95405,-44.85492 26.83636,-81.90722 26.40514,-82.33843 -0.43121,-0.43122 -19.91899,-0.32111 -43.30619,0.24468 l -42.52217,1.02874 -27.3682,82.10478 -27.36819,82.10478 H 688.7407 666.62323 Z"
       id="path1734"
       transform="scale(0.26458333)" />
    <path
       style="fill:#ffffff;fill-opacity:0;stroke-width:1.3943"
       d="m 669.10386,490.44328 c 1.36434,-4.02602 16.47652,-49.72792 33.58262,-101.55975 l 31.10199,-94.23972 87.13633,-0.96578 c 47.92497,-0.53118 87.431,-0.67111 87.79117,-0.31094 0.36016,0.36016 -14.49866,46.1154 -33.01959,101.6783 l -33.67445,101.02344 -16.52779,0.99306 c -9.09027,0.54617 -19.03378,0.56967 -22.09667,0.0521 l -5.56889,-0.94086 27.18919,-81.5544 c 14.95405,-44.85492 26.83636,-81.90722 26.40514,-82.33843 -0.43121,-0.43122 -19.91899,-0.32111 -43.30619,0.24468 l -42.52217,1.02874 -27.3682,82.10478 -27.36819,82.10478 H 688.7407 666.62323 Z"
       id="path1773"
       transform="scale(0.26458333)" />
    <path
       style="fill:#ffffff;fill-opacity:0;stroke-width:1.3943"
       d="m 669.10386,490.44328 c 1.36434,-4.02602 16.47652,-49.72792 33.58262,-101.55975 l 31.10199,-94.23972 87.13633,-0.96578 c 47.92497,-0.53118 87.431,-0.67111 87.79117,-0.31094 0.36016,0.36016 -14.49866,46.1154 -33.01959,101.6783 l -33.67445,101.02344 -16.52779,0.99306 c -9.09027,0.54617 -19.03378,0.56967 -22.09667,0.0521 l -5.56889,-0.94086 27.18919,-81.5544 c 14.95405,-44.85492 26.83636,-81.90722 26.40514,-82.33843 -0.43121,-0.43122 -19.91899,-0.32111 -43.30619,0.24468 l -42.52217,1.02874 -27.3682,82.10478 -27.36819,82.10478 H 688.7407 666.62323 Z"
       id="path1812"
       transform="scale(0.26458333)" />
    <path
       style="fill:#ffffff;fill-opacity:0;stroke-width:1.3943"
       d="m 669.10386,490.44328 c 1.36434,-4.02602 16.47652,-49.72792 33.58262,-101.55975 l 31.10199,-94.23972 87.13633,-0.96578 c 47.92497,-0.53118 87.431,-0.67111 87.79117,-0.31094 0.36016,0.36016 -14.49866,46.1154 -33.01959,101.6783 l -33.67445,101.02344 -16.52779,0.99306 c -9.09027,0.54617 -19.03378,0.56967 -22.09667,0.0521 l -5.56889,-0.94086 27.18919,-81.5544 c 14.95405,-44.85492 26.83636,-81.90722 26.40514,-82.33843 -0.43121,-0.43122 -19.91899,-0.32111 -43.30619,0.24468 l -42.52217,1.02874 -27.3682,82.10478 -27.36819,82.10478 H 688.7407 666.62323 Z"
       id="path1851"
       transform="scale(0.26458333)" />
  </g>
</svg>
